<svg id="Capa_1" enable-background="new 0 0 512 512" height="512" viewBox="0 0 512 512" width="512" xmlns="http://www.w3.org/2000/svg"><g><g><path d="m171 512h-155c-8.284 0-15-6.716-15-15v-180c0-8.284 6.716-15 15-15h155c8.284 0 15 6.716 15 15v180c0 8.284-6.716 15-15 15z" fill="#f9f9f9"/><path d="m171 302h-85v210h85c8.284 0 15-6.716 15-15v-180c0-8.284-6.716-15-15-15z" fill="#e4e4ff"/></g><path d="m496 512h-155c-8.284 0-15-6.716-15-15v-120c0-8.284 6.716-15 15-15h155c8.284 0 15 6.716 15 15v120c0 8.284-6.716 15-15 15z" fill="#f9f9f9"/><path d="m496 362h-70v150h70c8.284 0 15-6.716 15-15v-120c0-8.284-6.716-15-15-15z" fill="#e4e4ff"/><path d="m341 512h-170v-255c0-8.284 6.716-15 15-15h140c8.284 0 15 6.716 15 15z" fill="#ff6378"/><path d="m341 257c0-8.284-6.716-15-15-15h-70v270h85z" fill="#d0004f"/><g><g><path d="m256 452c-8.284 0-15-6.716-15-15v-105h-10.649c-8.284 0-15-6.716-15-15s6.716-15 15-15h25.649c8.284 0 15 6.716 15 15v120c0 8.284-6.716 15-15 15z" fill="#ffe196"/></g></g><g><g><path d="m314.483 210c-2.388 0-4.783-.569-6.978-1.723l-51.505-27.079-51.505 27.079c-5.057 2.656-11.179 2.214-15.797-1.143-4.619-3.355-6.933-9.043-5.968-14.671l9.837-57.352-41.669-40.617c-4.089-3.985-5.561-9.946-3.796-15.376 1.764-5.431 6.458-9.389 12.108-10.209l57.585-8.368 25.753-52.181c2.528-5.119 7.742-8.36 13.452-8.36s10.924 3.241 13.451 8.361l25.753 52.181 57.585 8.368c5.65.82 10.345 4.778 12.108 10.209 1.765 5.43.293 11.391-3.796 15.376l-41.669 40.617 9.837 57.352c.965 5.628-1.349 11.315-5.968 14.671-2.611 1.898-5.707 2.865-8.818 2.865z" fill="#ffe196"/></g></g><g fill="#ffb454"><path d="m256 302v150c8.284 0 15-6.716 15-15v-120c0-8.284-6.716-15-15-15z"/><path d="m364.897 79.119c-1.764-5.431-6.458-9.389-12.108-10.209l-57.585-8.368-25.753-52.181c-2.527-5.12-7.741-8.361-13.451-8.361v181.198l51.505 27.079c2.195 1.153 4.591 1.723 6.978 1.723 3.11 0 6.206-.967 8.818-2.865 4.619-3.355 6.933-9.043 5.968-14.671l-9.837-57.352 41.669-40.617c4.089-3.985 5.561-9.946 3.796-15.376z"/></g></g></svg>